<?xml version="1.0" encoding="UTF-8" standalone="no"?>
<svg
   xmlns:dc="http://purl.org/dc/elements/1.1/"
   xmlns:cc="http://creativecommons.org/ns#"
   xmlns:rdf="http://www.w3.org/1999/02/22-rdf-syntax-ns#"
   xmlns:svg="http://www.w3.org/2000/svg"
   xmlns="http://www.w3.org/2000/svg"
   xmlns:sodipodi="http://sodipodi.sourceforge.net/DTD/sodipodi-0.dtd"
   xmlns:inkscape="http://www.inkscape.org/namespaces/inkscape"
   enable-background="new 0 0 32 32"
   height="20"
   id="svg2"
   version="1.1"
   viewBox="0 0 20 20"
   width="20"
   xml:space="preserve"
   sodipodi:docname="txt.svg"
   inkscape:version="0.92.4 (5da689c313, 2019-01-14)"><metadata
     id="metadata23"><rdf:RDF><cc:Work
         rdf:about=""><dc:format>image/svg+xml</dc:format><dc:type
           rdf:resource="http://purl.org/dc/dcmitype/StillImage" /><dc:title></dc:title></cc:Work></rdf:RDF></metadata><defs
     id="defs21" /><sodipodi:namedview
     pagecolor="#ffffff"
     bordercolor="#666666"
     borderopacity="1"
     objecttolerance="10"
     gridtolerance="10"
     guidetolerance="10"
     inkscape:pageopacity="0"
     inkscape:pageshadow="2"
     inkscape:window-width="1920"
     inkscape:window-height="1009"
     id="namedview19"
     showgrid="false"
     fit-margin-top="0"
     fit-margin-left="0"
     fit-margin-right="0"
     fit-margin-bottom="0"
     inkscape:zoom="10.429825"
     inkscape:cx="-15.265045"
     inkscape:cy="6.5426805"
     inkscape:window-x="3832"
     inkscape:window-y="515"
     inkscape:window-maximized="1"
     inkscape:current-layer="text_x5F_align_x5F_left" /><g
     id="text_x5F_align_x5F_left"
     transform="matrix(0.64285714,0,0,0.64285714,-0.28571428,0.3026632)"><path
       id="path817"
       d="m 21.586521,15.084792 c -0.0045,-0.191986 -0.01867,-1.159024 -0.679059,-2.327824 -0.645285,-1.170579 -2.034513,-2.426484 -4.223681,-2.953555 -1.366119,-0.3617499 -1.755423,-0.8834889 -1.99896,-1.2692369 -0.112881,-0.197319 -0.167987,-0.380416 -0.191985,-0.496852 -0.0089,-0.04355 -0.01333,-0.07644 -0.016,-0.09599 0.06577,-1.1163603 0.348418,-1.1883549 0.793717,-1.4887766 0.231983,-0.1173245 0.511962,-0.1919855 0.720835,-0.2248719 0.102214,-0.016887 0.18843,-0.025776 0.235538,-0.029331 0.01333,-8.914e-4 0.024,-0.00178 0.03111,-0.00178 1.144802,0.06044 1.21413,0.343974 1.515441,0.7954955 0.119102,0.2302048 0.191986,0.511961 0.226649,0.718168 0.01689,0.104881 0.02578,0.18843 0.02933,0.238204 0.0027,0.024 0.0027,0.04 0.0027,0.04533 l 0.574179,-0.01955 h 2.981108 c -0.0098,-0.148433 0.01244,-1.2559052 -0.632841,-2.5731389 -0.585733,-1.3279 -2.294049,-2.8211202 -4.700089,-2.7589026 -0.148433,0.00889 -1.255905,-0.01333 -2.573139,0.6301747 -1.327011,0.5875109 -2.820231,2.2949375 -2.759791,4.7018668 0.0035,0.191985 0.01867,1.159023 0.678171,2.3260459 0.190207,0.344863 0.453299,0.695059 0.774163,1.0337 -0.36175,0.378638 -0.646173,0.783941 -0.821271,1.178577 -0.642618,1.317234 -0.622175,2.424706 -0.631063,2.573139 0.0035,0.190208 0.01867,1.158135 0.67906,2.326046 0.646173,1.169689 2.035401,2.426484 4.221903,2.952666 1.367896,0.36175 1.7572,0.883489 1.99896,1.268349 0.113769,0.198207 0.167987,0.383082 0.193763,0.49774 0.008,0.04089 0.01333,0.07288 0.01511,0.09333 -0.06311,1.121693 -0.34664,1.19191 -0.792829,1.494109 -0.231982,0.117324 -0.51285,0.190208 -0.719056,0.223095 -0.104882,0.01867 -0.188431,0.02667 -0.238205,0.02933 -0.01867,9.14e-4 -0.03377,0.0018 -0.04088,0.0027 -1.134137,-0.06399 -1.204354,-0.345752 -1.505665,-0.795495 -0.117324,-0.231094 -0.191985,-0.511073 -0.224871,-0.719946 -0.01867,-0.102215 -0.02578,-0.18843 -0.02933,-0.236426 -0.0027,-0.02222 -0.0027,-0.03644 -0.0027,-0.04355 v -0.0027 l -0.592844,0.02044 h -2.963331 c 0.0098,0.146655 -0.01067,1.254127 0.631063,2.57225 0.575956,1.300346 2.226498,2.761569 4.556989,2.761569 0.048,0 0.09599,-9.14e-4 0.145766,-0.0018 0.148434,-0.0098 1.255905,0.01244 2.571361,-0.631952 1.327011,-0.585734 2.822898,-2.294938 2.759792,-4.70009 -0.0035,-0.193763 -0.01867,-1.1608 -0.677282,-2.327823 -0.190208,-0.344863 -0.453299,-0.69417 -0.774164,-1.032811 0.360862,-0.379527 0.646173,-0.78483 0.819493,-1.178578 0.645285,-1.317233 0.623065,-2.422927 0.632842,-2.571361 z m -6.899034,0.562624 C 14.57194,15.449208 14.5195,15.267 14.493724,15.149676 c -0.0089,-0.04 -0.01333,-0.07199 -0.016,-0.09244 0.01155,-0.160877 0.08977,-0.688837 0.301311,-1.04081 0.269313,-0.365306 0.382194,-0.615065 1.270126,-0.693281 1.1768,0.357306 1.544772,0.83727 1.773199,1.198132 0.112881,0.199985 0.167988,0.382193 0.191986,0.499517 0.0089,0.04089 0.01511,0.07377 0.01689,0.09333 -0.01245,0.165321 -0.08977,0.687059 -0.300422,1.038144 -0.271091,0.366194 -0.383971,0.616841 -1.275459,0.692392 -1.174133,-0.357307 -1.541217,-0.837271 -1.767867,-1.197243 z"
       inkscape:connector-curvature="0"
       style="fill:#6288b8;fill-opacity:1;stroke-width:0.88882166" /></g></svg>