<?xml version="1.0" encoding="UTF-8" standalone="no"?>
<svg
   xmlns:dc="http://purl.org/dc/elements/1.1/"
   xmlns:cc="http://creativecommons.org/ns#"
   xmlns:rdf="http://www.w3.org/1999/02/22-rdf-syntax-ns#"
   xmlns:svg="http://www.w3.org/2000/svg"
   xmlns="http://www.w3.org/2000/svg"
   xmlns:sodipodi="http://sodipodi.sourceforge.net/DTD/sodipodi-0.dtd"
   xmlns:inkscape="http://www.inkscape.org/namespaces/inkscape"
   width="32"
   height="32"
   viewBox="0 0 8.467 8.467"
   version="1.1"
   id="svg10"
   sodipodi:docname="titleSearch.svg"
   inkscape:version="0.92.4 (5da689c313, 2019-01-14)">
  <metadata
     id="metadata16">
    <rdf:RDF>
      <cc:Work
         rdf:about="">
        <dc:format>image/svg+xml</dc:format>
        <dc:type
           rdf:resource="http://purl.org/dc/dcmitype/StillImage" />
        <dc:title></dc:title>
      </cc:Work>
    </rdf:RDF>
  </metadata>
  <defs
     id="defs14" />
  <sodipodi:namedview
     pagecolor="#ffffff"
     bordercolor="#666666"
     borderopacity="1"
     objecttolerance="10"
     gridtolerance="10"
     guidetolerance="10"
     inkscape:pageopacity="0"
     inkscape:pageshadow="2"
     inkscape:window-width="1920"
     inkscape:window-height="1009"
     id="namedview12"
     showgrid="false"
     inkscape:zoom="7.375"
     inkscape:cx="16.135393"
     inkscape:cy="15.969804"
     inkscape:window-x="3832"
     inkscape:window-y="515"
     inkscape:window-maximized="1"
     inkscape:current-layer="svg10" />
  <path
     style="color:#000000;font-style:normal;font-variant:normal;font-weight:normal;font-stretch:normal;font-size:medium;line-height:normal;font-family:sans-serif;font-variant-ligatures:normal;font-variant-position:normal;font-variant-caps:normal;font-variant-numeric:normal;font-variant-alternates:normal;font-feature-settings:normal;text-indent:0;text-align:start;text-decoration:none;text-decoration-line:none;text-decoration-style:solid;text-decoration-color:#000000;letter-spacing:normal;word-spacing:normal;text-transform:none;writing-mode:lr-tb;direction:ltr;text-orientation:mixed;dominant-baseline:auto;baseline-shift:baseline;text-anchor:start;white-space:normal;shape-padding:0;clip-rule:nonzero;display:inline;overflow:visible;visibility:visible;opacity:1;isolation:auto;mix-blend-mode:normal;color-interpolation:sRGB;color-interpolation-filters:linearRGB;solid-color:#000000;solid-opacity:1;vector-effect:none;fill:#6288b8;fill-opacity:1;fill-rule:nonzero;stroke:none;stroke-width:4.99980307;stroke-linecap:round;stroke-linejoin:round;stroke-miterlimit:4;stroke-dasharray:none;stroke-dashoffset:0;stroke-opacity:1;color-rendering:auto;image-rendering:auto;shape-rendering:auto;text-rendering:auto;enable-background:accumulate"
     d="M 16.306641 1.8164062 C 9.9876456 1.8164062 4.8339844 6.9759268 4.8339844 13.294922 C 4.8339844 15.940525 5.7460456 18.37433 7.2597656 20.318359 L 1.6015625 25.982422 A 2.5001783 2.5001783 0 0 0 5.1367188 29.519531 L 11.005859 23.642578 A 2.5001515 2.5001515 0 0 0 11.126953 23.513672 C 12.685395 24.30776 14.442931 24.765625 16.306641 24.765625 C 22.625636 24.765625 27.785156 19.613917 27.785156 13.294922 C 27.785156 6.9759268 22.625636 1.8164062 16.306641 1.8164062 z M 16.306641 4.8203125 C 21.004379 4.8203125 24.779297 8.5971835 24.779297 13.294922 C 24.779297 17.992661 21.004379 21.767578 16.306641 21.767578 C 11.608902 21.767578 7.8320312 17.992661 7.8320312 13.294922 C 7.8320312 8.5971835 11.608902 4.8203125 16.306641 4.8203125 z "
     transform="scale(0.26459375)"
     id="path4" />
  <style
     id="style832"
     type="text/css">
	.st0{fill:#222A30;}
	.st1{fill:none;stroke:#222A30;stroke-width:2.0101;stroke-linejoin:round;stroke-miterlimit:10;}
	.st2{fill:#171715;}
	.st3{fill-rule:evenodd;clip-rule:evenodd;fill:#222A30;}
</style>
  <g
     id="g849"
     transform="matrix(0.14576069,0,0,0.14576069,3.1082579,3.2862967)"
     style="fill:#b86262;fill-opacity:1">
    <g
       id="Layer_1"
       style="fill:#b86262;fill-opacity:1" />
    <g
       id="icons"
       style="fill:#b86262;fill-opacity:1">
      <path
         id="close_1_"
         d="M 6.2,3.5 3.5,6.2 c -0.7,0.7 -0.7,1.9 0,2.7 l 9.2,9.2 -9.2,9.2 C 2.8,28 2.8,29.2 3.5,30 l 2.6,2.6 c 0.7,0.7 1.9,0.7 2.7,0 l 9.2,-9.2 9.2,9.2 c 0.7,0.7 1.9,0.7 2.7,0 L 32.5,30 c 0.7,-0.7 0.7,-1.9 0,-2.7 L 23.3,18 32.5,8.8 c 0.7,-0.7 0.7,-1.9 0,-2.7 L 29.9,3.5 C 29.2,2.8 28,2.8 27.2,3.5 L 18,12.7 8.8,3.5 C 8.1,2.8 6.9,2.8 6.2,3.5 Z"
         class="st0"
         inkscape:connector-curvature="0"
         style="fill:#b86262;fill-opacity:1" />
    </g>
  </g>
</svg>
