<?xml version="1.0" encoding="UTF-8" standalone="no"?>
<svg
   xmlns:dc="http://purl.org/dc/elements/1.1/"
   xmlns:cc="http://creativecommons.org/ns#"
   xmlns:rdf="http://www.w3.org/1999/02/22-rdf-syntax-ns#"
   xmlns:svg="http://www.w3.org/2000/svg"
   xmlns="http://www.w3.org/2000/svg"
   xmlns:sodipodi="http://sodipodi.sourceforge.net/DTD/sodipodi-0.dtd"
   xmlns:inkscape="http://www.inkscape.org/namespaces/inkscape"
   width="32"
   height="32"
   viewBox="0 0 8.467 8.467"
   version="1.1"
   id="svg10"
   sodipodi:docname="italicSearch.svg"
   inkscape:version="0.92.4 (5da689c313, 2019-01-14)">
  <metadata
     id="metadata16">
    <rdf:RDF>
      <cc:Work
         rdf:about="">
        <dc:format>image/svg+xml</dc:format>
        <dc:type
           rdf:resource="http://purl.org/dc/dcmitype/StillImage" />
        <dc:title></dc:title>
      </cc:Work>
    </rdf:RDF>
  </metadata>
  <defs
     id="defs14" />
  <sodipodi:namedview
     pagecolor="#ffffff"
     bordercolor="#666666"
     borderopacity="1"
     objecttolerance="10"
     gridtolerance="10"
     guidetolerance="10"
     inkscape:pageopacity="0"
     inkscape:pageshadow="2"
     inkscape:window-width="1920"
     inkscape:window-height="1009"
     id="namedview12"
     showgrid="false"
     inkscape:zoom="7.375"
     inkscape:cx="-19.178918"
     inkscape:cy="25.367364"
     inkscape:window-x="3832"
     inkscape:window-y="515"
     inkscape:window-maximized="1"
     inkscape:current-layer="flowRoot817" />
  <path
     style="color:#000000;font-style:normal;font-variant:normal;font-weight:normal;font-stretch:normal;font-size:medium;line-height:normal;font-family:sans-serif;font-variant-ligatures:normal;font-variant-position:normal;font-variant-caps:normal;font-variant-numeric:normal;font-variant-alternates:normal;font-feature-settings:normal;text-indent:0;text-align:start;text-decoration:none;text-decoration-line:none;text-decoration-style:solid;text-decoration-color:#000000;letter-spacing:normal;word-spacing:normal;text-transform:none;writing-mode:lr-tb;direction:ltr;text-orientation:mixed;dominant-baseline:auto;baseline-shift:baseline;text-anchor:start;white-space:normal;shape-padding:0;clip-rule:nonzero;display:inline;overflow:visible;visibility:visible;opacity:1;isolation:auto;mix-blend-mode:normal;color-interpolation:sRGB;color-interpolation-filters:linearRGB;solid-color:#000000;solid-opacity:1;vector-effect:none;fill:#6288b8;fill-opacity:1;fill-rule:nonzero;stroke:none;stroke-width:4.99980307;stroke-linecap:round;stroke-linejoin:round;stroke-miterlimit:4;stroke-dasharray:none;stroke-dashoffset:0;stroke-opacity:1;color-rendering:auto;image-rendering:auto;shape-rendering:auto;text-rendering:auto;enable-background:accumulate"
     d="M 16.306641 1.8164062 C 9.9876456 1.8164062 4.8339844 6.9759268 4.8339844 13.294922 C 4.8339844 15.940525 5.7460456 18.37433 7.2597656 20.318359 L 1.6015625 25.982422 A 2.5001783 2.5001783 0 0 0 5.1367188 29.519531 L 11.005859 23.642578 A 2.5001515 2.5001515 0 0 0 11.126953 23.513672 C 12.685395 24.30776 14.442931 24.765625 16.306641 24.765625 C 22.625636 24.765625 27.785156 19.613917 27.785156 13.294922 C 27.785156 6.9759268 22.625636 1.8164062 16.306641 1.8164062 z M 16.306641 4.8203125 C 21.004379 4.8203125 24.779297 8.5971835 24.779297 13.294922 C 24.779297 17.992661 21.004379 21.767578 16.306641 21.767578 C 11.608902 21.767578 7.8320312 17.992661 7.8320312 13.294922 C 7.8320312 8.5971835 11.608902 4.8203125 16.306641 4.8203125 z "
     transform="scale(0.26459375)"
     id="path4" />
  <style
     id="style832"
     type="text/css">
	.st0{fill:#222A30;}
	.st1{fill:none;stroke:#222A30;stroke-width:2.0101;stroke-linejoin:round;stroke-miterlimit:10;}
	.st2{fill:#171715;}
	.st3{fill-rule:evenodd;clip-rule:evenodd;fill:#222A30;}
</style>
  <g
     aria-label="IV"
     transform="matrix(0.26256178,0,0,0.26256178,21.211369,-2.148581)"
     style="font-style:normal;font-variant:normal;font-weight:normal;font-stretch:normal;font-size:16px;line-height:1.25;font-family:'Open Sans';-inkscape-font-specification:'Open Sans';letter-spacing:0px;word-spacing:0px;fill:#8b62b8;fill-opacity:1;stroke:none"
     id="flowRoot817">
    <g
       aria-label="I"
       style="font-style:normal;font-variant:normal;font-weight:bold;font-stretch:normal;font-size:75.24450684px;line-height:1.25;font-family:'Open Sans';-inkscape-font-specification:'Open Sans Bold';letter-spacing:0px;word-spacing:0px;fill:#8b62b8;fill-opacity:1;stroke:none;stroke-width:1.00773895"
       id="text821"
       transform="matrix(0.3329392,0,0,0.3329392,-13.845367,30.260047)">
      <path
         d="m -143.04691,24.264446 0.40415,-2.535093 h 2.2779 q 2.09421,0 2.86576,-0.293924 0.77155,-0.293924 1.13896,-0.698069 0.3674,-0.440886 0.69807,-1.616581 0.33066,-1.175696 1.46962,-7.825723 1.57984,-9.074899 3.15968,-18.4069814 2.13095,-12.7856876 2.13095,-15.5044836 0,-1.175695 -0.95526,-1.690062 -0.95525,-0.551107 -4.26189,-0.551107 h -1.94725 l 0.40415,-2.498353 q 10.14037,0.257184 12.01413,0.257184 l 12.1611,-0.257184 -0.44088,2.498353 h -0.91851 q -3.71079,0 -4.51908,0.477626 -0.80829,0.440886 -1.21244,1.616581 -0.58785,1.653322 -1.69006,8.266609 l -4.15168,24.983527 q -1.13895,6.760249 -1.13895,8.744235 0,1.322657 0.95525,1.910505 0.95525,0.587848 4.0782,0.587848 h 2.20442 l -0.44088,2.535093 q -8.56053,-0.367405 -12.78569,-0.367405 -5.10693,0 -11.49977,0.367405 z"
         style="font-style:italic;font-variant:normal;font-weight:bold;font-stretch:normal;font-family:'Book Antiqua';-inkscape-font-specification:'Book Antiqua Bold Italic';fill:#8b62b8;fill-opacity:1;stroke-width:1.00773895"
         id="path823"
         inkscape:connector-curvature="0" />
    </g>
  </g>
</svg>
