<?xml version="1.0" encoding="UTF-8" standalone="no"?>
<svg
   enable-background="new 0 0 32 32"
   height="15.999999"
   id="svg2"
   version="1.1"
   viewBox="0 0 15.478375 15.999999"
   width="15.478375"
   xml:space="preserve"
   sodipodi:docname="apart.svg"
   inkscape:version="1.3.2 (091e20e, 2023-11-25, custom)"
   xmlns:inkscape="http://www.inkscape.org/namespaces/inkscape"
   xmlns:sodipodi="http://sodipodi.sourceforge.net/DTD/sodipodi-0.dtd"
   xmlns="http://www.w3.org/2000/svg"
   xmlns:svg="http://www.w3.org/2000/svg"
   xmlns:rdf="http://www.w3.org/1999/02/22-rdf-syntax-ns#"
   xmlns:cc="http://creativecommons.org/ns#"
   xmlns:dc="http://purl.org/dc/elements/1.1/"><metadata
     id="metadata23"><rdf:RDF><cc:Work
         rdf:about=""><dc:format>image/svg+xml</dc:format><dc:type
           rdf:resource="http://purl.org/dc/dcmitype/StillImage" /></cc:Work></rdf:RDF></metadata><defs
     id="defs21" /><sodipodi:namedview
     pagecolor="#ffffff"
     bordercolor="#666666"
     borderopacity="1"
     objecttolerance="10"
     gridtolerance="10"
     guidetolerance="10"
     inkscape:pageopacity="0"
     inkscape:pageshadow="2"
     inkscape:window-width="2400"
     inkscape:window-height="1261"
     id="namedview19"
     showgrid="false"
     fit-margin-top="0"
     fit-margin-left="0"
     fit-margin-right="0"
     fit-margin-bottom="0"
     inkscape:zoom="20.85965"
     inkscape:cx="3.1640032"
     inkscape:cy="10.618587"
     inkscape:window-x="2391"
     inkscape:window-y="-9"
     inkscape:window-maximized="1"
     inkscape:current-layer="svg2"
     inkscape:showpageshadow="2"
     inkscape:pagecheckerboard="0"
     inkscape:deskcolor="#d1d1d1" /><path
     d="m 15.1214,7.1148554 q 0,0.8588752 -0.205384,1.680408 -0.186712,0.8215328 -0.597478,1.4936956 -0.410766,0.653492 -1.008245,1.064259 -0.597478,0.392095 -1.419011,0.392095 -0.858875,0 -1.362998,-0.485451 -0.485451,-0.504123 -0.5974779,-1.138943 h -0.093356 q -0.3360816,0.690834 -0.9895736,1.157614 -0.653492,0.46678 -1.6430656,0.46678 -1.4190112,0 -2.2032016,-0.952231 -0.7655192,-0.9522314 -0.7655192,-2.5206122 0,-1.2322992 0.4854512,-2.1658592 0.4854512,-0.9522312 1.3629976,-1.493696 0.8962176,-0.5414648 2.1098456,-0.5414648 0.8215328,0 1.6057232,0.1493696 0.8028613,0.1306984 1.2509703,0.2987392 l -0.186712,3.7902536 q -0.01867,0.3360816 -0.01867,0.4854512 0,0.1306984 0,0.186712 0,0.9709024 0.336081,1.2883126 0.354753,0.317411 0.821533,0.317411 0.578807,0 0.970903,-0.46678 0.410766,-0.4854516 0.616149,-1.269642 0.224055,-0.8028616 0.224055,-1.7550928 0,-1.7364216 -0.709506,-2.9313784 Q 12.414076,2.9511778 11.181776,2.316357 9.9681485,1.6815362 8.4184389,1.6815362 q -2.1285168,0 -3.6035416,0.8775464 -1.4563535,0.8775464 -2.2218727,2.427256 -0.746848,1.5310384 -0.746848,3.5101856 0,2.7633378 1.4563536,4.2383628 1.4563535,1.475024 4.2010199,1.475024 1.1389432,0 2.1658592,-0.261396 1.0455867,-0.242726 1.8484487,-0.541465 v 1.269641 q -0.802862,0.336082 -1.8111063,0.541465 -0.9895736,0.224054 -2.2032016,0.224054 -2.2032016,0 -3.7715823,-0.821532 Q 2.163587,13.799145 1.323383,12.268107 0.50185019,10.718397 0.50185019,8.5525378 q 0,-1.7364216 0.54146481,-3.2114464 Q 1.5847798,3.8473954 2.6116958,2.7644658 3.6386118,1.662865 5.0949653,1.0653866 6.5699901,0.44923705 8.4184389,0.44923705 q 1.9418051,0 3.4541721,0.80286155 1.512367,0.8028616 2.371242,2.2965576 0.877547,1.493696 0.877547,3.5661992 z M 5.6924437,8.3098122 q 0,1.1949568 0.46678,1.7364218 0.4854512,0.541465 1.2883128,0.541465 1.0455872,0 1.493696,-0.7841908 0.46678,-0.7841904 0.5414648,-2.0351608 l 0.1120272,-2.3339 Q 9.3519989,5.3597626 8.9785749,5.303749 8.6051509,5.2477354 8.2130557,5.2477354 q -0.9148888,0 -1.4750248,0.4481088 Q 6.1778949,6.143953 5.9351693,6.8534586 5.6924437,7.544293 5.6924437,8.3098122 Z"
     id="text1"
     style="font-size:18.6712px;text-align:end;text-anchor:end;fill:#6288b8;stroke:#6188b8;stroke-width:0.632655;stroke-linecap:round"
     aria-label="@" /></svg>
