<?xml version="1.0" encoding="UTF-8" standalone="no"?>
<svg
   xmlns:dc="http://purl.org/dc/elements/1.1/"
   xmlns:cc="http://creativecommons.org/ns#"
   xmlns:rdf="http://www.w3.org/1999/02/22-rdf-syntax-ns#"
   xmlns:svg="http://www.w3.org/2000/svg"
   xmlns="http://www.w3.org/2000/svg"
   xmlns:sodipodi="http://sodipodi.sourceforge.net/DTD/sodipodi-0.dtd"
   xmlns:inkscape="http://www.inkscape.org/namespaces/inkscape"
   viewBox="0 0 16 14.838819"
   version="1.1"
   id="svg7"
   sodipodi:docname="poem.svg"
   width="16"
   height="14.83882"
   inkscape:version="0.92.4 (5da689c313, 2019-01-14)">
  <metadata
     id="metadata13">
    <rdf:RDF>
      <cc:Work
         rdf:about="">
        <dc:format>image/svg+xml</dc:format>
        <dc:type
           rdf:resource="http://purl.org/dc/dcmitype/StillImage" />
        <dc:title></dc:title>
      </cc:Work>
    </rdf:RDF>
  </metadata>
  <defs
     id="defs11" />
  <sodipodi:namedview
     pagecolor="#ffffff"
     bordercolor="#666666"
     borderopacity="1"
     objecttolerance="10"
     gridtolerance="10"
     guidetolerance="10"
     inkscape:pageopacity="0"
     inkscape:pageshadow="2"
     inkscape:window-width="1920"
     inkscape:window-height="1009"
     id="namedview9"
     showgrid="false"
     fit-margin-top="0"
     fit-margin-left="0"
     fit-margin-right="0"
     fit-margin-bottom="0"
     inkscape:zoom="3.9333333"
     inkscape:cx="28.011886"
     inkscape:cy="25.30119"
     inkscape:window-x="3832"
     inkscape:window-y="515"
     inkscape:window-maximized="1"
     inkscape:current-layer="svg7" />
  <path
     inkscape:connector-curvature="0"
     id="path4"
     d="M 1.1405079,13.907528 0.25283843,14.795195 A 0.14793755,0.14793755 0 0 1 6.0498645e-5,14.686651 4.3385056,4.3385056 0 0 1 1.7697768,11.511979 c -0.1907962,0.590922 -0.5650971,1.696418 -0.587679,2.299761 a 0.14003346,0.14003346 0 0 1 -0.04159,0.09579 z M 11.983012,4.2198642 11.321591,3.889156 a 0.29441498,0.29441498 0 1 0 -0.263332,0.5266622 l 0.283832,0.1419269 A 9.411562,9.411562 0 0 0 8.5945536,6.5540775 3.7910537,3.7910537 0 0 1 7.0831294,6.8019043 0.29126806,0.29126806 0 0 0 6.780987,7.0962833 0.29679357,0.29679357 0 0 0 7.0967828,7.3906633 6.0367818,6.0367818 0 0 0 7.9893004,7.3314425 8.7925846,8.7925846 0 0 0 7.1403097,8.9301921 C 6.376162,9.4239931 5.8754074,9.4513211 5.0079531,9.4513211 a 0.29437966,0.29437966 0 0 0 0,0.5887589 4.5779952,4.5779952 0 0 0 1.6634128,-0.2138309 C 5.6198182,11.481163 4.3424549,11.385218 2.8896559,11.274231 2.7114355,11.260666 2.5296943,11.248161 2.346911,11.237561 4.0604538,7.180029 7.724586,4.2271417 13.645583,2.0741494 A 0.29442676,0.29442676 0 0 0 13.444347,1.5207504 C 8.2027225,3.4268878 4.6762019,5.9546967 2.6641287,9.3060001 A 0.30917518,0.30917518 0 0 0 2.6467367,9.3330301 12.706171,12.706171 0 0 1 1.7967831,10.59742 C 1.2111119,9.2748991 1.2209589,8.1619908 1.5439876,7.2368441 A 3.2008725,3.2008725 0 0 0 1.7973837,8.1039014 0.29439322,0.29439322 0 1 0 2.3309469,7.854944 3.7874063,3.7874063 0 0 1 2.0611479,6.2162708 7.3763447,7.3763447 0 0 1 4.074116,4.3125178 3.2397041,3.2397041 0 0 0 3.5360547,5.9187645 a 0.2943797,0.2943797 0 0 0 0.5887594,0 c 0,-0.2345109 0.098982,-1.1042179 1.3473756,-2.4918581 A 18.213052,18.213052 0 0 1 9.7762353,1.611487 l -0.027146,0.054301 a 0.29441498,0.29441498 0 0 0 0.5266637,0.2633304 l 0.266728,-0.5334713 c 0.796447,-0.2142086 1.571475,-0.3951606 2.293716,-0.56311927 a 21.09552,21.09552 0 0 0 2.961164,-0.8214836 0.14678064,0.14678064 0 0 1 0.189354,0.1967572 C 14.966419,2.5466657 13.519234,3.4077875 11.983014,4.219866 Z"
     style="fill:#6288b8;fill-opacity:1;stroke-width:0.29437965" />
</svg>
