<?xml version="1.0" encoding="UTF-8" standalone="no"?>
<svg
   xmlns:dc="http://purl.org/dc/elements/1.1/"
   xmlns:cc="http://creativecommons.org/ns#"
   xmlns:rdf="http://www.w3.org/1999/02/22-rdf-syntax-ns#"
   xmlns:svg="http://www.w3.org/2000/svg"
   xmlns="http://www.w3.org/2000/svg"
   xmlns:sodipodi="http://sodipodi.sourceforge.net/DTD/sodipodi-0.dtd"
   xmlns:inkscape="http://www.inkscape.org/namespaces/inkscape"
   enable-background="new 0 0 32 32"
   height="15.999999"
   id="svg2"
   version="1.1"
   viewBox="0 0 15.478375 15.999999"
   width="15.478375"
   xml:space="preserve"
   sodipodi:docname="sidebar.svg"
   inkscape:version="0.92.4 (5da689c313, 2019-01-14)"><metadata
     id="metadata23"><rdf:RDF><cc:Work
         rdf:about=""><dc:format>image/svg+xml</dc:format><dc:type
           rdf:resource="http://purl.org/dc/dcmitype/StillImage" /><dc:title></dc:title></cc:Work></rdf:RDF></metadata><defs
     id="defs21" /><sodipodi:namedview
     pagecolor="#ffffff"
     bordercolor="#666666"
     borderopacity="1"
     objecttolerance="10"
     gridtolerance="10"
     guidetolerance="10"
     inkscape:pageopacity="0"
     inkscape:pageshadow="2"
     inkscape:window-width="1920"
     inkscape:window-height="1009"
     id="namedview19"
     showgrid="false"
     fit-margin-top="0"
     fit-margin-left="0"
     fit-margin-right="0"
     fit-margin-bottom="0"
     inkscape:zoom="7.375"
     inkscape:cx="-10.033424"
     inkscape:cy="12.727904"
     inkscape:window-x="3832"
     inkscape:window-y="515"
     inkscape:window-maximized="1"
     inkscape:current-layer="svg2" /><path
     d="M 15.478375,15.787091 H 11.465069 L 10.24085,14.584164 q -2.0332657,1.415835 -4.5988015,1.415835 -2.5974717,0 -4.1197601,-1.192282 Q -4.5647518e-8,13.615434 -4.5647518e-8,11.582168 -4.5647518e-8,10.123751 0.63872274,9.1017961 1.2880902,8.0691942 2.85296,7.174983 2.0545572,6.2594807 1.6926149,5.4291411 1.3306716,4.5881569 1.3306716,3.5981365 q 0,-1.6180968 1.2348633,-2.60811642 Q 3.8110438,-3.7232008e-7 5.8868922,-3.7232008e-7 q 1.98004,0 3.1616763,0.92614791232008 1.1922815,0.91550236 1.1922815,2.45908186 0,1.2667992 -0.7345298,2.3206913 Q 8.771789,6.7491681 7.1324011,7.6966063 l 3.0232869,2.9487687 q 0.755821,-1.2455091 1.309381,-3.204258 h 3.385229 q -0.383234,1.4371256 -1.053892,2.81038 -0.670659,1.362607 -1.522289,2.416499 z M 3.4171656,11.273452 q 0,0.915502 0.6813033,1.458417 0.6919498,0.542913 1.767133,0.542913 1.3413173,0 2.4164997,-0.649367 L 4.7478373,9.1124408 Q 4.1304056,9.5808379 3.7684624,10.091816 3.4171656,10.602793 3.4171656,11.273452 Z M 7.238855,3.7258815 Q 7.238855,3.161676 6.8556215,2.842315 6.472388,2.5123085 5.8656019,2.5123085 q -0.7132409,0 -1.1284102,0.3406521 -0.4045246,0.3406521 -0.4045246,0.9687293 0,0.9367926 1.0113107,2.0652028 Q 6.2594801,5.3759142 6.7491676,4.8862267 7.238855,4.3858946 7.238855,3.7258815 Z"
     style="font-style:normal;font-variant:normal;font-weight:bold;font-stretch:normal;font-size:24.88888931px;line-height:1.25;font-family:'Open Sans';-inkscape-font-specification:'Open Sans Bold';letter-spacing:0px;word-spacing:0px;fill:#6288b8;fill-opacity:1;stroke:none;stroke-width:1.36260796"
     id="path820"
     inkscape:connector-curvature="0" /></svg>