<?xml version="1.0" encoding="UTF-8" standalone="no"?>
<svg
   xmlns:dc="http://purl.org/dc/elements/1.1/"
   xmlns:cc="http://creativecommons.org/ns#"
   xmlns:rdf="http://www.w3.org/1999/02/22-rdf-syntax-ns#"
   xmlns:svg="http://www.w3.org/2000/svg"
   xmlns="http://www.w3.org/2000/svg"
   xmlns:sodipodi="http://sodipodi.sourceforge.net/DTD/sodipodi-0.dtd"
   xmlns:inkscape="http://www.inkscape.org/namespaces/inkscape"
   version="1.1"
   width="466.1813"
   height="434.48776"
   id="svg10"
   sodipodi:docname="abreviation.svg"
   inkscape:version="0.92.4 (5da689c313, 2019-01-14)">
  <metadata
     id="metadata16">
    <rdf:RDF>
      <cc:Work
         rdf:about="">
        <dc:format>image/svg+xml</dc:format>
        <dc:type
           rdf:resource="http://purl.org/dc/dcmitype/StillImage" />
        <dc:title></dc:title>
      </cc:Work>
    </rdf:RDF>
  </metadata>
  <defs
     id="defs14" />
  <sodipodi:namedview
     pagecolor="#ffffff"
     bordercolor="#666666"
     borderopacity="1"
     objecttolerance="10"
     gridtolerance="10"
     guidetolerance="10"
     inkscape:pageopacity="0"
     inkscape:pageshadow="2"
     inkscape:window-width="1920"
     inkscape:window-height="1009"
     id="namedview12"
     showgrid="false"
     inkscape:zoom="0.27158417"
     inkscape:cx="-698.15375"
     inkscape:cy="421.54622"
     inkscape:window-x="3832"
     inkscape:window-y="515"
     inkscape:window-maximized="1"
     inkscape:current-layer="svg10" />
  <path
     inkscape:connector-curvature="0"
     id="path2"
     d="M 467.18595,397.93475 H -0.15662132 l 0.001942,36.553 H 467.18592 Z"
     style="fill:#62b880" />
  <g
     aria-label="Abr."
     style="font-style:normal;font-variant:normal;font-weight:bold;font-stretch:normal;font-size:192px;line-height:1.25;font-family:'Open Sans';-inkscape-font-specification:'Open Sans Bold';letter-spacing:0px;word-spacing:0px;fill:#6288b8;fill-opacity:1;stroke:none"
     id="text818"
     transform="matrix(1.090604,0,0,1.090604,1153.009,247.43327)">
    <path
       d="m -915.10327,18.4105 -9.9375,-32.625 h -49.96875 l -9.9375,32.625 h -31.31248 l 48.37498,-137.625 h 35.53125 l 48.5625,137.625 z m -16.875,-57 q -13.78125,-44.34375 -15.5625,-50.15625 -1.6875,-5.8125 -2.4375,-9.1875 -3.09375,12 -17.71875,59.34375 z"
       id="path820"
       inkscape:connector-curvature="0"
       style="fill:#6288b8;fill-opacity:1" />
    <path
       d="m -821.40047,-88.37075 q 18.5625,0 29.0625,14.53125 10.5,14.4375 10.5,39.65625 0,25.9687496 -10.875,40.2187496 -10.78125,14.2500004 -29.4375,14.2500004 -18.46875,0 -28.96875,-13.4062504 h -1.96875 L -857.86922,18.4105 h -21.84375 v -145.875 h 28.59375 v 33.9375 q 0,6.46875 -1.125,20.71875 h 1.125 q 10.03125,-15.5625 29.71875,-15.5625 z m -9.1875,22.875 q -10.59375,0 -15.46875,6.5625 -4.875,6.46875 -5.0625,21.46875 v 3.09375 q 0,16.875 4.96875,24.1875 5.0625,7.3124996 15.9375,7.3124996 8.8125,0 13.96875,-8.0624996 5.25,-8.15625 5.25,-23.625 0,-15.46875 -5.25,-23.15625 -5.25,-7.78125 -14.34375,-7.78125 z"
       id="path822"
       inkscape:connector-curvature="0"
       style="fill:#6288b8;fill-opacity:1" />
    <path
       d="m -710.54142,-88.37075 q 5.8125,0 9.65625,0.84375 l -2.15625,26.8125 q -3.46875,-0.9375 -8.4375,-0.9375 -13.6875,0 -21.375,7.03125 -7.59375,7.03125 -7.59375,19.6875 V 18.4105 h -28.59375 V -86.402 h 21.65625 l 4.21875,17.625 h 1.40625 q 4.875,-8.8125 13.125,-14.15625 8.34375,-5.4375 18.09375,-5.4375 z"
       id="path824"
       inkscape:connector-curvature="0"
       style="fill:#6288b8;fill-opacity:1" />
    <path
       d="m -696.52612,5.0042496 q 0,-7.875 4.21875,-11.90625 4.21875,-4.0312496 12.28125,-4.0312496 7.78125,0 12,4.1249996 4.3125,4.125 4.3125,11.8125 0,7.4062504 -4.3125,11.7187504 -4.3125,4.21875 -12,4.21875 -7.875,0 -12.1875,-4.125 -4.3125,-4.21875 -4.3125,-11.8125004 z"
       id="path827"
       inkscape:connector-curvature="0"
       style="fill:#6288b8;fill-opacity:1" />
  </g>
</svg>
