<?xml version="1.0" encoding="UTF-8" standalone="no"?>
<svg
   xmlns:dc="http://purl.org/dc/elements/1.1/"
   xmlns:cc="http://creativecommons.org/ns#"
   xmlns:rdf="http://www.w3.org/1999/02/22-rdf-syntax-ns#"
   xmlns:svg="http://www.w3.org/2000/svg"
   xmlns="http://www.w3.org/2000/svg"
   xmlns:sodipodi="http://sodipodi.sourceforge.net/DTD/sodipodi-0.dtd"
   xmlns:inkscape="http://www.inkscape.org/namespaces/inkscape"
   version="1.1"
   width="466.1813"
   height="434.48776"
   id="svg10"
   sodipodi:docname="acronym.svg"
   inkscape:version="0.92.4 (5da689c313, 2019-01-14)">
  <metadata
     id="metadata16">
    <rdf:RDF>
      <cc:Work
         rdf:about="">
        <dc:format>image/svg+xml</dc:format>
        <dc:type
           rdf:resource="http://purl.org/dc/dcmitype/StillImage" />
        <dc:title></dc:title>
      </cc:Work>
    </rdf:RDF>
  </metadata>
  <defs
     id="defs14" />
  <sodipodi:namedview
     pagecolor="#ffffff"
     bordercolor="#666666"
     borderopacity="1"
     objecttolerance="10"
     gridtolerance="10"
     guidetolerance="10"
     inkscape:pageopacity="0"
     inkscape:pageshadow="2"
     inkscape:window-width="1920"
     inkscape:window-height="1009"
     id="namedview12"
     showgrid="false"
     inkscape:zoom="0.38407802"
     inkscape:cx="-502.24174"
     inkscape:cy="213.43094"
     inkscape:window-x="3832"
     inkscape:window-y="515"
     inkscape:window-maximized="1"
     inkscape:current-layer="svg10" />
  <path
     inkscape:connector-curvature="0"
     id="path2"
     d="M 467.18595,397.93475 H -0.15662132 l 0.001942,36.553 H 467.18592 Z"
     style="fill:#62b880" />
  <g
     aria-label="A."
     style="font-style:normal;font-variant:normal;font-weight:bold;font-stretch:normal;font-size:192px;line-height:1.25;font-family:'Open Sans';-inkscape-font-specification:'Open Sans Bold';letter-spacing:0px;word-spacing:0px;fill:#6288b8;fill-opacity:1;stroke:none"
     id="text818"
     transform="matrix(2.327695,0,0,2.327695,1656.304,-219.37929)">
    <path
       d="m -599.22229,247.02585 -9.9375,-32.625 h -49.96875 l -9.9375,32.625 h -31.3125 l 48.375,-137.625 h 35.53125 l 48.5625,137.625 z m -16.875,-57 q -13.78125,-44.34375 -15.5625,-50.15625 -1.6875,-5.8125 -2.4375,-9.1875 -3.09375,12 -17.71875,59.34375 z"
       id="path820"
       inkscape:connector-curvature="0" />
    <path
       d="m -557.03479,233.6196 q 0,-7.875 4.21875,-11.90625 4.21875,-4.03125 12.28125,-4.03125 7.78125,0 12,4.125 4.3125,4.125 4.3125,11.8125 0,7.40625 -4.3125,11.71875 -4.3125,4.21875 -12,4.21875 -7.875,0 -12.1875,-4.125 -4.3125,-4.21875 -4.3125,-11.8125 z"
       id="path822"
       inkscape:connector-curvature="0" />
  </g>
</svg>
