<?xml version="1.0" encoding="UTF-8" standalone="no"?>
<svg
   xmlns:dc="http://purl.org/dc/elements/1.1/"
   xmlns:cc="http://creativecommons.org/ns#"
   xmlns:rdf="http://www.w3.org/1999/02/22-rdf-syntax-ns#"
   xmlns:svg="http://www.w3.org/2000/svg"
   xmlns="http://www.w3.org/2000/svg"
   xmlns:sodipodi="http://sodipodi.sourceforge.net/DTD/sodipodi-0.dtd"
   xmlns:inkscape="http://www.inkscape.org/namespaces/inkscape"
   version="1.1"
   viewBox="0 0 16 16"
   xml:space="preserve"
   id="svg7"
   sodipodi:docname="error.svg"
   inkscape:version="0.92.4 (5da689c313, 2019-01-14)"
   width="16"
   height="16"><metadata
     id="metadata13"><rdf:RDF><cc:Work
         rdf:about=""><dc:format>image/svg+xml</dc:format><dc:type
           rdf:resource="http://purl.org/dc/dcmitype/StillImage" /><dc:title></dc:title></cc:Work></rdf:RDF></metadata><defs
     id="defs11" /><sodipodi:namedview
     pagecolor="#ffffff"
     bordercolor="#666666"
     borderopacity="1"
     objecttolerance="10"
     gridtolerance="10"
     guidetolerance="10"
     inkscape:pageopacity="0"
     inkscape:pageshadow="2"
     inkscape:window-width="1920"
     inkscape:window-height="1017"
     id="namedview9"
     showgrid="false"
     inkscape:zoom="6.5555556"
     inkscape:cx="-23.110169"
     inkscape:cy="18"
     inkscape:window-x="3832"
     inkscape:window-y="515"
     inkscape:window-maximized="1"
     inkscape:current-layer="svg7" /><style
     type="text/css"
     id="style2">
	.st0{fill:#222A30;}
	.st1{fill:none;stroke:#222A30;stroke-width:2.0101;stroke-linejoin:round;stroke-miterlimit:10;}
	.st2{fill:#171715;}
	.st3{fill-rule:evenodd;clip-rule:evenodd;fill:#222A30;}
</style><path
     style="fill:#b86262;fill-opacity:1;stroke-width:0.46589017"
     inkscape:connector-curvature="0"
     id="close_1_"
     d="M 2.5024958,1.1980031 1.2445923,2.4559066 c -0.32612307,0.3261231 -0.32612307,0.8851913 0,1.2579034 L 5.530782,7.9999997 1.2445923,12.28619 c -0.32612307,0.326123 -0.32612307,0.885191 0,1.257903 l 1.2113145,1.211315 c 0.3261232,0.326123 0.8851914,0.326123 1.2579035,0 L 8,10.469218 l 4.28619,4.28619 c 0.326123,0.326123 0.885191,0.326123 1.257903,0 l 1.211315,-1.211315 c 0.326123,-0.326123 0.326123,-0.885191 0,-1.257903 l -4.28619,-4.3327793 4.28619,-4.2861897 c 0.326123,-0.3261231 0.326123,-0.8851913 0,-1.2579035 L 13.544093,1.1980031 c -0.326123,-0.32612315 -0.885191,-0.32612315 -1.257903,0 L 8,5.4841927 3.7138103,1.1980031 c -0.3261231,-0.32612315 -0.8851913,-0.32612315 -1.2113145,0 z"
     class="st0" /></svg>