<?xml version="1.0" encoding="UTF-8" standalone="no"?>
<svg
   xmlns:dc="http://purl.org/dc/elements/1.1/"
   xmlns:cc="http://creativecommons.org/ns#"
   xmlns:rdf="http://www.w3.org/1999/02/22-rdf-syntax-ns#"
   xmlns:svg="http://www.w3.org/2000/svg"
   xmlns="http://www.w3.org/2000/svg"
   xmlns:sodipodi="http://sodipodi.sourceforge.net/DTD/sodipodi-0.dtd"
   xmlns:inkscape="http://www.inkscape.org/namespaces/inkscape"
   version="1.1"
   width="466.1813"
   height="434.48776"
   id="svg10"
   sodipodi:docname="expInd.svg"
   inkscape:version="0.92.4 (5da689c313, 2019-01-14)">
  <metadata
     id="metadata16">
    <rdf:RDF>
      <cc:Work
         rdf:about="">
        <dc:format>image/svg+xml</dc:format>
        <dc:type
           rdf:resource="http://purl.org/dc/dcmitype/StillImage" />
        <dc:title></dc:title>
      </cc:Work>
    </rdf:RDF>
  </metadata>
  <defs
     id="defs14" />
  <sodipodi:namedview
     pagecolor="#ffffff"
     bordercolor="#666666"
     borderopacity="1"
     objecttolerance="10"
     gridtolerance="10"
     guidetolerance="10"
     inkscape:pageopacity="0"
     inkscape:pageshadow="2"
     inkscape:window-width="1920"
     inkscape:window-height="1017"
     id="namedview12"
     showgrid="false"
     inkscape:zoom="0.54316835"
     inkscape:cx="-263.07228"
     inkscape:cy="217.24388"
     inkscape:window-x="3832"
     inkscape:window-y="515"
     inkscape:window-maximized="1"
     inkscape:current-layer="svg10" />
  <path
     inkscape:connector-curvature="0"
     id="path2"
     d="M 467.18595,397.93475 H -0.15662132 l 0.001942,36.553 H 467.18592 Z"
     style="fill:#62b880" />
  <path
     inkscape:connector-curvature="0"
     id="path866"
     style="font-style:normal;font-variant:normal;font-weight:normal;font-stretch:normal;font-size:192px;line-height:1.25;font-family:Calibri;-inkscape-font-specification:Calibri;letter-spacing:0px;word-spacing:0px;fill:#6288b8;fill-opacity:1;stroke:none;stroke-width:2.77214026"
     d="m 296.72379,317.86007 q 2.07911,3.63843 2.07911,6.23731 0,2.33899 -2.59888,3.89832 -2.339,1.55933 -7.53676,2.07911 -4.93787,0.77966 -12.99441,0.77966 -7.79664,0 -12.47463,-0.51977 -4.41809,-0.25975 -7.27686,-1.03956 -2.59889,-1.03955 -4.15821,-2.33899 -1.29945,-1.55933 -2.339,-3.37855 l -56.13584,-92.78006 -55.87595,92.78006 q -1.03955,1.81922 -2.59888,3.37855 -1.29944,1.29944 -4.15821,2.33899 -2.59888,0.77967 -7.01698,1.03956 -4.4181,0.51977 -11.69497,0.51977 -7.53675,0 -12.474627,-0.77966 -4.677986,-0.51978 -7.01698,-2.07911 -2.079105,-1.55933 -2.079105,-3.89832 0.25975,-2.59888 2.598882,-6.23731 L 165.74017,203.76917 96.869812,93.836486 q -2.079105,-3.638434 -2.338994,-5.977427 0,-2.598882 2.338994,-4.158211 2.598881,-1.819217 7.536758,-2.338993 5.19776,-0.519776 13.51418,-0.519776 7.53676,0 11.95486,0.519776 4.67798,0.25975 7.27686,1.039553 2.59889,0.779664 3.89833,2.079105 1.29944,1.29944 2.33899,3.118657 l 53.27707,87.06253 54.05673,-87.06253 q 1.03956,-1.559328 2.339,-2.858769 1.29944,-1.299441 3.37854,-2.079105 2.339,-1.039553 6.23732,-1.299441 4.15821,-0.519776 11.17519,-0.519776 7.53675,0 12.21474,0.519776 4.93788,0.519776 7.27687,2.079105 2.33899,1.299441 2.0791,3.898322 -0.25975,2.598882 -2.59888,6.497204 L 224.47489,202.46973 Z" />
  <path
     inkscape:connector-curvature="0"
     id="path863"
     style="font-style:normal;font-variant:normal;font-weight:normal;font-stretch:normal;font-size:192px;line-height:1.25;font-family:Calibri;-inkscape-font-specification:Calibri;letter-spacing:0px;word-spacing:0px;fill:#6288b8;fill-opacity:1;stroke:none"
     d="m 394.70577,64.462606 q 0,3.65625 -1.875,5.25 -1.78125,1.5 -4.125,1.5 h -55.3125 q 0,7.03125 1.40625,12.65625 1.40625,5.625 4.6875,9.65625 3.28125,4.03125 8.53125,6.1875 5.25,2.156254 12.84375,2.156254 6,0 10.6875,-0.9375 4.6875,-1.031254 8.0625,-2.250004 3.46875,-1.21875 5.625,-2.15625 2.25,-1.03125 3.375,-1.03125 0.65625,0 1.125,0.375 0.5625,0.28125 0.84375,0.9375 0.28125,0.65625 0.375,1.875 0.1875,1.125 0.1875,2.812504 0,1.21875 -0.0937,2.15625 -0.0937,0.84375 -0.28125,1.59375 -0.0937,0.65625 -0.46875,1.21875 -0.28125,0.5625 -0.84375,1.125 -0.46875,0.46875 -3,1.6875 -2.53125,1.125 -6.5625,2.25 -4.03125,1.125 -9.375,1.96875 -5.25,0.9375 -11.25,0.9375 -10.40625,0 -18.28125,-2.90625 -7.78125,-2.90625 -13.125,-8.625 -5.34375,-5.718754 -8.0625,-14.343754 -2.71875,-8.625 -2.71875,-20.0625 0,-10.875 2.8125,-19.5 2.8125,-8.71875 8.0625,-14.71875 5.34375,-6.09375 12.84375,-9.28125 7.5,-3.28125 16.78125,-3.28125 9.9375,0 16.875,3.1875 7.03125,3.1875 11.53125,8.625 4.5,5.34375 6.5625,12.65625 2.15625,7.21875 2.15625,15.46875 z m -15.5625,-4.59375 q 0.28125,-12.1875 -5.4375,-19.125 -5.625,-6.9375 -16.78125,-6.9375 -5.71875,0 -10.03125,2.15625 -4.3125,2.15625 -7.21875,5.71875 -2.90625,3.5625 -4.5,8.34375 -1.59375,4.6875 -1.78125,9.84375 z" />
  <path
     inkscape:connector-curvature="0"
     id="path860"
     style="font-style:normal;font-variant:normal;font-weight:normal;font-stretch:normal;font-size:192px;line-height:1.25;font-family:Calibri;-inkscape-font-specification:Calibri;letter-spacing:0px;word-spacing:0px;fill:#6288b8;fill-opacity:1;stroke:none"
     d="m 365.79032,375.41753 q 0,0.75 -0.375,1.3125 -0.375,0.46875 -1.21875,0.84375 -0.84375,0.375 -2.34375,0.5625 -1.5,0.1875 -3.84375,0.1875 -2.25,0 -3.75,-0.1875 -1.5,-0.1875 -2.4375,-0.5625 -0.84375,-0.375 -1.21875,-0.84375 -0.28125,-0.5625 -0.28125,-1.3125 v -84.375 q 0,-0.65625 0.28125,-1.21875 0.375,-0.5625 1.21875,-0.9375 0.9375,-0.375 2.4375,-0.5625 1.5,-0.1875 3.75,-0.1875 2.34375,0 3.84375,0.1875 1.5,0.1875 2.34375,0.5625 0.84375,0.375 1.21875,0.9375 0.375,0.5625 0.375,1.21875 z m 1.78125,-112.87501 q 0,5.4375 -2.0625,7.40625 -2.0625,1.96875 -7.59375,1.96875 -5.4375,0 -7.5,-1.875 -1.96875,-1.96875 -1.96875,-7.3125 0,-5.4375 2.0625,-7.40625 2.0625,-1.96875 7.59375,-1.96875 5.4375,0 7.40625,1.96875 2.0625,1.875 2.0625,7.21875 z" />
</svg>
