<?xml version="1.0" encoding="UTF-8" standalone="no"?>
<svg
   xmlns:dc="http://purl.org/dc/elements/1.1/"
   xmlns:cc="http://creativecommons.org/ns#"
   xmlns:rdf="http://www.w3.org/1999/02/22-rdf-syntax-ns#"
   xmlns:svg="http://www.w3.org/2000/svg"
   xmlns="http://www.w3.org/2000/svg"
   xmlns:sodipodi="http://sodipodi.sourceforge.net/DTD/sodipodi-0.dtd"
   xmlns:inkscape="http://www.inkscape.org/namespaces/inkscape"
   height="12"
   id="Layer_1"
   version="1.2"
   viewBox="0 0 10.345305 12"
   width="10.345305"
   xml:space="preserve"
   sodipodi:docname="lang.svg"
   inkscape:version="0.92.4 (5da689c313, 2019-01-14)"><metadata
     id="metadata9"><rdf:RDF><cc:Work
         rdf:about=""><dc:format>image/svg+xml</dc:format><dc:type
           rdf:resource="http://purl.org/dc/dcmitype/StillImage" /><dc:title></dc:title></cc:Work></rdf:RDF></metadata><defs
     id="defs7" /><sodipodi:namedview
     pagecolor="#ffffff"
     bordercolor="#666666"
     borderopacity="1"
     objecttolerance="10"
     gridtolerance="10"
     guidetolerance="10"
     inkscape:pageopacity="0"
     inkscape:pageshadow="2"
     inkscape:window-width="1920"
     inkscape:window-height="1009"
     id="namedview5"
     showgrid="false"
     fit-margin-top="0"
     fit-margin-left="0"
     fit-margin-right="0"
     fit-margin-bottom="0"
     inkscape:zoom="9.8333333"
     inkscape:cx="7"
     inkscape:cy="7.242"
     inkscape:window-x="3832"
     inkscape:window-y="515"
     inkscape:window-maximized="1"
     inkscape:current-layer="Layer_1" /><path
     d="M 9.8893733,0.9719045 C 9.6130058,0.8573671 9.295257,0.9209165 9.0839168,1.1322567 c -0.9340328,0.9332944 -2.4540541,0.9340333 -3.3888263,0 -1.5111533,-1.5096756 -3.9681635,-1.5096756 -5.47857803,0 C 0.07758982,1.2704404 0,1.4588728 0,1.6546946 V 11.26105 C 0,11.66895 0.3303108,12 0.7389504,12 1.1475899,12 1.4779008,11.66895 1.4779008,11.26105 V 7.896608 c 0.9392059,-0.736733 2.306264,-0.673183 3.1723137,0.192128 1.511154,1.509675 3.9689025,1.509675 5.4785785,0 0.138922,-0.138923 0.216512,-0.326616 0.216512,-0.522438 V 1.6546946 c 0,-0.2992749 -0.180304,-0.5682528 -0.4559317,-0.6827901 z"
     id="path2"
     style="fill:#6288b8;fill-opacity:1;stroke-width:0.73895037"
     inkscape:connector-curvature="0" /></svg>