<?xml version="1.0" encoding="UTF-8" standalone="no"?>
<svg
   xmlns:dc="http://purl.org/dc/elements/1.1/"
   xmlns:cc="http://creativecommons.org/ns#"
   xmlns:rdf="http://www.w3.org/1999/02/22-rdf-syntax-ns#"
   xmlns:svg="http://www.w3.org/2000/svg"
   xmlns="http://www.w3.org/2000/svg"
   xmlns:sodipodi="http://sodipodi.sourceforge.net/DTD/sodipodi-0.dtd"
   xmlns:inkscape="http://www.inkscape.org/namespaces/inkscape"
   height="17"
   viewBox="0 0 17 17"
   width="17"
   version="1.1"
   id="svg4"
   sodipodi:docname="pageNumber.svg"
   inkscape:version="0.92.4 (5da689c313, 2019-01-14)">
  <metadata
     id="metadata10">
    <rdf:RDF>
      <cc:Work
         rdf:about="">
        <dc:format>image/svg+xml</dc:format>
        <dc:type
           rdf:resource="http://purl.org/dc/dcmitype/StillImage" />
        <dc:title></dc:title>
      </cc:Work>
    </rdf:RDF>
  </metadata>
  <defs
     id="defs8" />
  <sodipodi:namedview
     pagecolor="#ffffff"
     bordercolor="#666666"
     borderopacity="1"
     objecttolerance="10"
     gridtolerance="10"
     guidetolerance="10"
     inkscape:pageopacity="0"
     inkscape:pageshadow="2"
     inkscape:window-width="1920"
     inkscape:window-height="1017"
     id="namedview6"
     showgrid="false"
     inkscape:zoom="33.714286"
     inkscape:cx="0.3105424"
     inkscape:cy="5.7219706"
     inkscape:window-x="3832"
     inkscape:window-y="515"
     inkscape:window-maximized="1"
     inkscape:current-layer="svg4" />
  <path
     d="M 9.4348779,9.9476455 10.06469,7.4284013 H 7.5651244 L 6.9353129,9.9476455 Z M 16.992619,4.9878812 16.441534,7.1922147 q -0.06889,0.2361866 -0.305065,0.2361866 h -3.217944 l -0.629812,2.5192442 h 3.060491 q 0.147612,0 0.246021,0.1181505 0.0984,0.137841 0.05905,0.275541 l -0.551084,2.204334 q -0.0492,0.236186 -0.305065,0.236186 h -3.217948 l -0.797105,3.22779 q -0.06888,0.236116 -0.305065,0.236116 H 8.2736631 q -0.157454,0 -0.2558613,-0.11815 -0.08857,-0.118008 -0.059047,-0.275542 l 0.7675826,-3.070327 h -2.499565 l -0.7971059,3.22779 q -0.068884,0.236229 -0.3050636,0.236229 h -2.214182 q -0.1476124,0 -0.2460197,-0.11815 -0.08857,-0.118008 -0.059047,-0.275542 L 3.3729374,12.781744 H 0.31244725 q -0.14761242,0 -0.24601975,-0.11815 -0.08857,-0.11815 -0.05904667,-0.275542 l 0.55108475,-2.204347 q 0.0688925,-0.2361728 0.305065,-0.2361728 H 4.0814762 L 4.7112879,7.428288 H 1.6507963 q -0.1476124,0 -0.2460212,-0.11815 Q 1.3063735,7.1722963 1.3457285,7.0345962 L 1.8968132,4.8302487 Q 1.9460141,4.5940762 2.2018783,4.5940762 h 3.2179455 l 0.7971059,-3.22779 Q 6.2858081,1.1301137 6.5318349,1.1301137 h 2.2043416 q 0.1476124,0 0.2460197,0.1180083 0.08857,0.11815 0.059047,0.2755417 L 8.2736603,4.5940054 h 2.4995657 l 0.797105,-3.22779 q 0.06889,-0.2361725 0.314906,-0.2361725 h 2.204341 q 0.147612,0 0.246019,0.1180083 0.08857,0.11815 0.05905,0.2755417 l -0.767582,3.0703416 h 3.060491 q 0.147612,0 0.246019,0.11815 0.08857,0.1180084 0.05905,0.2755417 z"
     id="path2"
     style="fill:#648db2;fill-opacity:1;stroke-width:0.0098408"
     inkscape:connector-curvature="0" />
</svg>
