<?xml version="1.0" encoding="UTF-8" standalone="no"?>
<svg
   xmlns:dc="http://purl.org/dc/elements/1.1/"
   xmlns:cc="http://creativecommons.org/ns#"
   xmlns:rdf="http://www.w3.org/1999/02/22-rdf-syntax-ns#"
   xmlns:svg="http://www.w3.org/2000/svg"
   xmlns="http://www.w3.org/2000/svg"
   xmlns:sodipodi="http://sodipodi.sourceforge.net/DTD/sodipodi-0.dtd"
   xmlns:inkscape="http://www.inkscape.org/namespaces/inkscape"
   height="16"
   version="1.1"
   viewBox="0 0 16 16"
   width="16"
   id="svg12"
   sodipodi:docname="url.svg"
   inkscape:version="0.92.4 (5da689c313, 2019-01-14)">
  <metadata
     id="metadata16">
    <rdf:RDF>
      <cc:Work
         rdf:about="">
        <dc:format>image/svg+xml</dc:format>
        <dc:type
           rdf:resource="http://purl.org/dc/dcmitype/StillImage" />
        <dc:title></dc:title>
      </cc:Work>
    </rdf:RDF>
  </metadata>
  <sodipodi:namedview
     pagecolor="#ffffff"
     bordercolor="#666666"
     borderopacity="1"
     objecttolerance="10"
     gridtolerance="10"
     guidetolerance="10"
     inkscape:pageopacity="0"
     inkscape:pageshadow="2"
     inkscape:window-width="1920"
     inkscape:window-height="1009"
     id="namedview14"
     showgrid="false"
     fit-margin-top="0"
     fit-margin-left="0"
     fit-margin-right="0"
     fit-margin-bottom="0"
     inkscape:zoom="11.8"
     inkscape:cx="10"
     inkscape:cy="10"
     inkscape:window-x="3832"
     inkscape:window-y="515"
     inkscape:window-maximized="1"
     inkscape:current-layer="svg12" />
  <desc
     id="desc4" />
  <defs
     id="defs6" />
  <path
     style="fill:#648db2;fill-opacity:1;fill-rule:evenodd;stroke:none;stroke-width:0.80000001"
     inkscape:connector-curvature="0"
     id="Shape"
     d="M 8,0 C 3.6,0 0,3.6 0,8 c 0,4.4 3.6,8 8,8 4.4,0 8,-3.6 8,-8 C 16,3.6 12.4,0 8,0 Z m 5.52,4.8 H 11.2 C 10.96,3.76 10.56,2.88 10.08,1.92 11.52,2.48 12.8,3.44 13.52,4.8 Z M 8,1.6 c 0.64,0.96 1.2,2 1.52,3.2 H 6.48 C 6.8,3.68 7.36,2.56 8,1.6 Z m -6.16,8 C 1.68,9.12 1.6,8.56 1.6,8 1.6,7.44 1.68,6.88 1.84,6.4 H 4.56 C 4.48,6.96 4.48,7.44 4.48,8 c 0,0.56 0.08,1.04 0.08,1.6 z m 0.64,1.6 H 4.8 c 0.24,1.04 0.64,1.92 1.12,2.88 C 4.48,13.52 3.2,12.56 2.48,11.2 Z M 4.8,4.8 H 2.48 C 3.28,3.44 4.48,2.48 5.92,1.92 5.44,2.88 5.04,3.76 4.8,4.8 Z M 8,14.4 C 7.36,13.44 6.8,12.4 6.48,11.2 H 9.52 C 9.2,12.32 8.64,13.44 8,14.4 Z M 9.84,9.6 H 6.16 C 6.08,9.04 6,8.56 6,8 6,7.44 6.08,6.96 6.16,6.4 h 3.76 c 0.08,0.56 0.16,1.04 0.16,1.6 0,0.56 -0.16,1.04 -0.24,1.6 z m 0.24,4.48 c 0.48,-0.88 0.88,-1.84 1.12,-2.88 h 2.32 c -0.72,1.36 -2,2.32 -3.44,2.88 z M 11.52,9.6 C 11.6,9.04 11.6,8.56 11.6,8 11.6,7.44 11.52,6.96 11.52,6.4 h 2.72 c 0.16,0.48 0.24,1.04 0.24,1.6 0,0.56 -0.08,1.12 -0.24,1.6 z" />
</svg>
