<?xml version="1.0" encoding="UTF-8"?>
<svg width="35px" height="35px" viewBox="0 0 35 35" version="1.1" xmlns="http://www.w3.org/2000/svg" xmlns:xlink="http://www.w3.org/1999/xlink">
    <title>chevron-b</title>
    <g id="chevron-b" stroke="none" stroke-width="1" fill="none" fill-rule="evenodd">
        <path d="M35,9.89789933 C35,10.6720524 34.7081251,11.4006671 34.1803512,11.9471281 L18.067257,28.6307485 C17.9113237,28.792203 17.7074112,28.875 17.5034984,28.875 C17.2995859,28.875 17.0956733,28.792203 16.9397401,28.6307485 L0.818649151,11.9471281 C-0.27288305,10.8169474 -0.27288305,8.97885125 0.818649151,7.84867052 C1.91018135,6.71848978 3.68542053,6.71848978 4.77695273,7.84867052 L17.4995002,21.0216929 L30.2220477,7.84867052 C30.7498216,7.3022095 31.4535199,7 32.2011996,7 C32.9488791,7 33.6525774,7.3022095 34.1803512,7.84867052 C34.7081251,8.39513153 35,9.12374622 35,9.89789933 Z" fill="#919191" fill-rule="nonzero"></path>
    </g>
</svg>