<?xml version="1.0" encoding="UTF-8"?>
<svg width="35px" height="35px" viewBox="0 0 35 35" version="1.1" xmlns="http://www.w3.org/2000/svg" xmlns:xlink="http://www.w3.org/1999/xlink">
    <title>chevron-d</title>
    <g id="chevron-d" stroke="none" stroke-width="1" fill="none" fill-rule="evenodd">
        <path d="M9.89789933,0 C10.6720524,0 11.4006671,0.291874944 11.9471281,0.819648773 L28.6307485,16.932743 C28.792203,17.0886763 28.875,17.2925888 28.875,17.4965016 C28.875,17.7004141 28.792203,17.9043267 28.6307485,18.0602599 L11.9471281,34.1813508 C10.8169474,35.2728831 8.97885125,35.2728831 7.84867052,34.1813508 C6.71848978,33.0898186 6.71848978,31.3145795 7.84867052,30.2230473 L21.0216929,17.5004998 L7.84867052,4.77795227 C7.3022095,4.25017844 7,3.54648015 7,2.79880045 C7,2.05112089 7.3022095,1.3474226 7.84867052,0.819648773 C8.39513153,0.291874944 9.12374622,0 9.89789933,0 Z" fill="#919191" fill-rule="nonzero"></path>
    </g>
</svg>